PathFileType	4	(X/Y/Z)	C:\Users\Biomechanik\SynologyDrive\AlexP\Athlete_03\Athlete_3_25_03_31\Walking_04\marker_experimental.trc
DataRate	CameraRate	NumFrames	NumMarkers	Units	OrigDataRate	OrigDataStartFrame	OrigNumFrames
200.000000	200.000000	4	53	mm	200.000000	405	463
Frame#	Time	GLAB			RFHD			LFHD			C7			T6			SPINMOL			SPINM2			SPINM3			T12			BELTOL			BELT2			BELT3			SACROL			SACR2			SACR3			LTHOL			LTH2			LTH3			LSHAOL			LSHA2			LSHA3			LHEE			LTOE			LM5			RTH2			RSHAOL			RSHA2			RSHA3			RHEE			RTOE			RM5			STRN			XIPH			LACR			LUAOL			LUA2			LUA3			LLAOL			LLA2			LLA3			LWRR			LWRU			RACR			RUAOL			RUA2			RUA3			RLAOL			RLA2			RLA3			RWRR			RWRU			RTH3			RTHOL			
		X1	Y1	Z1	X2	Y2	Z2	X3	Y3	Z3	X4	Y4	Z4	X5	Y5	Z5	X6	Y6	Z6	X7	Y7	Z7	X8	Y8	Z8	X9	Y9	Z9	X10	Y10	Z10	X11	Y11	Z11	X12	Y12	Z12	X13	Y13	Z13	X14	Y14	Z14	X15	Y15	Z15	X16	Y16	Z16	X17	Y17	Z17	X18	Y18	Z18	X19	Y19	Z19	X20	Y20	Z20	X21	Y21	Z21	X22	Y22	Z22	X23	Y23	Z23	X24	Y24	Z24	X25	Y25	Z25	X26	Y26	Z26	X27	Y27	Z27	X28	Y28	Z28	X29	Y29	Z29	X30	Y30	Z30	X31	Y31	Z31	X32	Y32	Z32	X33	Y33	Z33	X34	Y34	Z34	X35	Y35	Z35	X36	Y36	Z36	X37	Y37	Z37	X38	Y38	Z38	X39	Y39	Z39	X40	Y40	Z40	X41	Y41	Z41	X42	Y42	Z42	X43	Y43	Z43	X44	Y44	Z44	X45	Y45	Z45	X46	Y46	Z46	X47	Y47	Z47	X48	Y48	Z48	X49	Y49	Z49	X50	Y50	Z50	X51	Y51	Z51	X52	Y52	Z52	X53	Y53	Z53	

406	2.025	1968.9091796875	1587.814208984375	227.6508789062504	1919.458374023438	1620.840698242188	290.0537414550785	1934.14697265625	1617.903442382813	152.1900177001957	1731.59228515625	1446.303466796875	205.9922180175784	1676.036254882812	1274.94970703125	203.5856323242191	1670.16357421875	1234.495361328125	182.9100494384769	1663.780395507812	1227.714111328125	232.5199279785159	1675.929321289062	1170.965454101562	200.1491241455081	1703.612670898438	1106.22412109375	205.5276184082034	1665.723266601562	1073.059936523438	194.3676147460941	1665.602783203125	1071.639038085938	244.6217956542972	1661.179931640625	1011.294128417969	216.1490631103519	1676.107421875	964.0042114257814	201.6905517578128	1682.692260742188	961.4844360351564	252.5159759521488	1666.225463867188	903.1113281250001	226.2404785156253	1750.119506835938	683.5191040039064	47.62473678588899	1695.104736328125	634.5375366210939	78.34410858154328	1742.577758789062	624.9750976562501	65.07351684570345	1698.53955078125	328.7860717773439	83.71704864501984	1644.445922851562	272.3725891113282	99.41133117675811	1694.501342773438	267.811737060547	95.00967407226594	1609.361572265625	83.61263275146494	198.0663146972659	1825.198852539062	45.87733840942394	195.2420196533207	1775.891479492188	31.95200729370128	94.52058410644564	1950.034545898438	671.8913574218751	428.4563293457035	1921.349731445312	386.9215698242189	410.6939086914066	1941.548095703125	311.8489379882814	399.3396301269535	1896.726318359375	332.351531982422	392.3914794921878	1821.188598632812	134.4224548339845	272.1080932617191	2027.697998046875	90.00379943847669	287.3755187988285	1971.700439453125	69.98451232910168	381.744049072266	1901.185668945312	1348.319213867188	216.9505767822269	1920.8310546875	1205.9833984375	217.8043365478519	1814.919067382812	1408.40576171875	37.63918304443393	1834.09765625	1258.65478515625	-66.02932739257778	1832.096557617188	1196.132080078125	-86.80854797363247	1876.248901367188	1208.082153320313	-63.08119964599575	1932.337280273438	1012.53173828125	-107.1748199462887	1927.515502929688	935.7789916992189	-91.57216644287074	1968.53076171875	963.0879516601564	-100.6298904418942	2035.56005859375	884.7092895507814	-88.90982055664026	2062.044189453125	911.1942749023439	-19.10000801086388	1802.835083007812	1404.112548828125	381.137115478516	1765.986206054688	1258.758911132812	480.9033508300785	1784.98046875	1196.52587890625	493.535064697266	1734.877197265625	1203.330810546875	498.0133972167972	1751.408081054688	987.7480468750001	544.3339233398441	1799.00439453125	936.8671875000001	584.4838256835941	1764.729736328125	924.7548217773439	553.1377563476566	1793.703369140625	844.4078369140626	578.7289428710941	1846.99755859375	825.8755493164064	520.4232177734378	1910.702880859375	646.1705932617189	417.1629333496097	1873.600952148438	692.8280639648439	425.156158447266	
407	2.03	1975.542358398438	1586.62744140625	228.142242431641	1926.132934570312	1619.738891601563	290.596343994141	1940.931030273438	1617.043701171875	152.7608337402347	1737.840576171875	1445.754638671875	206.2605743408206	1682.232177734375	1274.39111328125	203.9276428222659	1676.286254882812	1233.9462890625	183.2736968994144	1670.008178710938	1226.812622070312	232.8247833251956	1682.136474609375	1170.406005859375	200.5841369628909	1709.7548828125	1105.681884765625	205.9896087646488	1671.697998046875	1072.951171875	195.0644683837894	1671.847900390625	1071.519653320312	245.2362213134769	1667.218872070312	1010.723022460938	216.7800903320316	1682.5595703125	963.5169677734376	202.2699737548831	1688.869262695312	961.2586059570314	253.1075286865238	1672.195190429688	902.9044189453126	226.8315124511722	1753.980590820312	683.4538574218751	47.5404624938968	1698.583984375	635.1099243164064	78.80258178710969	1746.10107421875	624.9408569335939	65.13694000244173	1700.324951171875	329.0702514648439	83.94065856933625	1645.860717773438	272.8036193847657	99.62482452392608	1695.935791015625	268.0703735351564	95.25868988037141	1609.63623046875	84.24803161621104	198.3656311035159	1825.423706054688	45.92493057250988	195.1788940429691	1775.87109375	32.23097229003917	94.8661804199222	1957.40673828125	671.5747680664064	427.3922729492191	1932.32763671875	384.0922851562501	409.8227233886722	1954.789428710938	309.516571044922	398.6099243164066	1909.306640625	328.8652954101564	391.8312377929691	1840.247436523438	127.9146728515626	272.5600891113285	2048.0458984375	90.17729187011732	287.4529418945316	1992.992797851562	68.11653137207044	381.9152832031253	1907.399536132812	1347.677001953125	217.0154876708988	1927.003662109375	1205.371215820313	217.6741790771488	1820.785766601562	1407.9912109375	37.90974426269565	1840.5556640625	1258.562377929688	-65.92993164062466	1839.015625	1196.030395507812	-86.7928314208981	1883.093017578125	1208.300048828125	-63.07370758056606	1941.308837890625	1013.590759277344	-107.9130554199215	1937.124389648438	936.5089721679689	-91.21803283691371	1977.70458984375	964.3399658203126	-100.1159057617184	2045.897583007812	886.7470092773439	-88.23847961425744	2071.720703125	913.8453979492189	-18.3512763977047	1809.136962890625	1403.535522460938	381.2943115234378	1771.589111328125	1258.237670898438	480.968658447266	1790.52099609375	1196.642333984375	493.5747375488285	1740.210083007812	1202.896728515625	497.9164428710941	1755.274658203125	987.5855712890626	544.3153076171878	1801.990478515625	936.9844970703126	584.8897094726566	1768.10302734375	923.8673706054689	553.5006713867191	1796.35791015625	843.9027099609376	579.5586547851566	1849.818237304688	824.7076416015626	521.3319702148441	1918.1171875	645.6116333007814	416.0867614746097	1880.438110351562	691.7681884765626	424.3072204589847	
408	2.035	1982.199096679688	1585.410766601563	228.6604461669926	1932.891723632812	1618.569946289063	291.1653137207035	1947.710571289062	1616.121215820313	153.3701629638676	1744.102905273438	1445.143798828125	206.5202941894534	1688.47607421875	1273.749633789062	204.3231048583988	1682.445556640625	1233.270629882812	183.6504974365238	1676.280395507812	1226.317504882812	233.3063964843753	1688.268676757812	1169.808715820312	201.0356597900394	1715.988037109375	1105.116333007812	206.4143066406253	1677.774658203125	1072.513549804688	195.5037231445316	1678.04443359375	1071.206298828125	245.8834381103519	1673.181640625	1010.290893554688	217.1900634765628	1688.610595703125	963.3256225585939	202.8532104492191	1695.068359375	960.8987426757814	253.66764831543	1678.109497070312	902.6165771484376	227.3487701416019	1757.950317382812	683.3635253906251	47.54138183593782	1702.339111328125	635.1517944335939	78.70701599121125	1749.66015625	624.9148559570314	65.27313232421908	1702.04345703125	329.2615356445314	84.19870758056672	1647.337890625	273.3888244628907	99.86119842529327	1697.451782226562	268.0534973144532	95.69503021240266	1609.938110351562	84.82304382324229	198.6160583496097	1825.4833984375	45.822666168213	195.2365722656253	1775.875122070312	32.29963302612315	94.97431182861361	1964.541259765625	670.7442626953126	426.4489440917972	1943.075073242188	381.253143310547	408.8083190917972	1967.84619140625	307.5655517578126	397.9712524414066	1921.806640625	325.3588256835939	390.9427490234378	1859.487182617188	121.6650009155275	273.0213317871097	2068.25048828125	90.46346282958997	287.6506958007816	2013.909545898438	66.4525070190431	382.1524658203129	1913.587890625	1346.983154296875	217.0861663818363	1933.239501953125	1204.667114257813	217.5717773437503	1826.736694335938	1407.54443359375	38.10832595825229	1847.005493164062	1258.387573242188	-65.72758483886685	1845.70556640625	1195.842529296875	-86.37297821044888	1889.900756835938	1208.469970703125	-62.97755432128871	1949.734008789062	1014.383728027344	-107.1643142700192	1946.619873046875	937.3217163085939	-90.94787597656214	1986.940673828125	965.6320800781251	-99.69503021240197	2056.005615234375	888.8555908203126	-87.50894165039024	2081.332763671875	916.5698852539064	-17.57371902465782	1815.444580078125	1402.892578125	381.4655456542972	1777.213745117188	1257.611572265625	481.1272888183597	1795.855834960938	1195.954956054688	493.7082824707035	1745.616821289062	1202.463012695312	497.7817993164066	1759.302001953125	987.0853881835939	544.3136596679691	1805.686889648438	935.4121093750001	584.7456665039066	1771.58203125	923.3570556640626	553.5613403320316	1799.076049804688	843.3086547851564	579.9760742187503	1852.901489257812	823.7247924804689	521.9614868164066	1925.313232421875	644.8150634765626	414.880767822266	1887.53857421875	690.8796997070314	423.4620361328128	
409	2.04	1988.872680664062	1584.130493164063	229.2160339355472	1939.671142578125	1617.317016601563	291.7755126953128	1954.502075195312	1615.14501953125	153.9653625488285	1750.387939453125	1444.4716796875	206.8017425537113	1694.661865234375	1273.124633789062	204.7442626953128	1688.545166015625	1232.669555664062	184.1337890625003	1682.53076171875	1225.864379882812	233.8644561767581	1694.495483398438	1169.095825195312	201.4375457763675	1722.119506835938	1104.440551757812	206.8938446044925	1683.828735351562	1072.081909179688	196.2117156982425	1684.303344726562	1070.740600585938	246.3972015380863	1679.2939453125	1009.837219238281	217.654220581055	1694.223510742188	963.2320556640626	203.4223937988284	1701.482299804688	960.5205078125001	254.1877899169925	1684.150634765625	902.3536987304689	227.7704620361331	1761.957885742188	683.1834716796876	47.51936340332064	1705.958740234375	635.7257080078126	79.22707366943391	1753.214233398438	624.8521118164064	65.43101501464876	1703.89111328125	329.3912353515626	84.24337005615266	1648.811279296875	273.8679809570314	100.0975646972659	1698.799682617188	268.4660034179689	95.62013244628938	1610.208740234375	85.43981170654307	198.8918304443362	1825.594604492188	45.7388153076173	195.196929931641	1775.927368164062	32.15793991088878	94.78888702392611	1971.600219726562	669.9021606445314	425.4564208984378	1953.4833984375	378.9387512207032	407.9263305664066	1980.551513671875	305.6168518066407	397.6218261718753	1934.054321289062	322.1253051757814	389.9150085449222	1878.9765625	115.6318435668946	273.2382202148441	2088.388427734375	90.7143478393556	287.9114990234379	2034.924194335938	65.26525878906263	382.6151733398441	1919.818359375	1346.1904296875	217.1938476562503	1939.392944335938	1203.903686523438	217.4782409667972	1832.709350585938	1407.043701171875	38.34488677978549	1853.46826171875	1258.1923828125	-65.5787200927731	1852.6162109375	1195.7001953125	-86.33129119873013	1896.646118164062	1208.520263671875	-62.73654174804653	1958.314453125	1015.128723144531	-106.9806137084957	1956.09033203125	938.0294799804689	-90.53028106689418	1996.026733398438	966.7860717773439	-99.24021911621057	2066.04345703125	890.9081420898439	-86.6995086669918	2090.8291015625	919.1315917968751	-16.77494239807091	1821.670166015625	1401.994262695312	381.7214355468753	1782.930297851562	1257.016723632812	481.2251892089847	1801.259887695312	1194.725219726562	493.7738647460941	1750.95751953125	1201.913940429688	497.7764587402347	1763.396240234375	986.4605102539064	544.3367309570316	1809.277709960938	934.8242187500001	585.1118164062503	1775.177856445312	922.8657226562501	553.7265625000003	1801.89013671875	842.6105346679689	579.8475341796878	1856.019287109375	822.6560058593751	522.5875244140628	1932.3486328125	643.8534545898439	413.5747985839847	1894.814697265625	690.0594482421876	422.5983276367191	
